<svg width="837" height="739" viewBox="0 0 837 739" fill="none" xmlns="http://www.w3.org/2000/svg">
<path d="M100.018 362.079H88.6607C76.4728 362.079 64.7842 366.921 56.166 375.539C47.5479 384.157 42.7063 395.846 42.7063 408.034V660.207C42.7063 672.395 47.5479 684.083 56.166 692.701C64.7842 701.319 76.4728 706.161 88.6607 706.161H244.482C256.67 706.161 268.359 701.319 276.977 692.701C285.595 684.083 290.437 672.395 290.437 660.207" stroke="#263238" stroke-width="1.10311" stroke-linecap="round" stroke-linejoin="round" stroke-dasharray="4.41 4.41"/>
<path d="M277.738 124.134V74.3243C277.738 66.8713 280.695 59.7226 285.959 54.4467C291.223 49.1707 298.365 46.1984 305.818 46.1817H508.453C515.917 46.1817 523.075 49.1467 528.353 54.4245C533.631 59.7023 536.596 66.8604 536.596 74.3243" stroke="#263238" stroke-width="1.10311" stroke-linecap="round" stroke-linejoin="round" stroke-dasharray="4.41 4.41"/>
<path d="M838.37 190.96V568.277C838.37 580.611 833.471 592.44 824.751 601.164C816.032 609.888 804.205 614.791 791.87 614.797H128.224C115.89 614.791 104.062 609.888 95.3426 601.164C86.6229 592.44 81.7245 580.611 81.7245 568.277V190.96C81.7245 189.85 81.7245 188.865 81.8712 187.691C82.6882 175.954 87.9262 164.963 96.5288 156.936C105.131 148.909 116.458 144.443 128.224 144.44H791.87C803.65 144.445 814.988 148.922 823.592 156.967C832.197 165.011 837.426 176.023 838.223 187.775C838.328 188.781 838.37 189.87 838.37 190.96Z" fill="white" stroke="#263238" stroke-width="1.10311" stroke-linecap="round" stroke-linejoin="round"/>
<path d="M104.356 205.126H818.106V553.671C818.106 565.231 813.514 576.317 805.34 584.491C797.166 592.665 786.079 597.258 774.519 597.258H147.963C136.404 597.258 125.317 592.665 117.143 584.491C108.969 576.317 104.377 565.231 104.377 553.671V205.126H104.356Z" fill="#263238"/>
<path opacity="0.2" d="M818.127 205.126V553.671C818.188 565.166 813.682 576.215 805.599 584.389C797.516 592.562 786.518 597.191 775.022 597.258H147.461C135.965 597.191 124.967 592.562 116.884 584.389C108.801 576.215 104.295 565.166 104.356 553.671V205.126H818.127Z" fill="white"/>
<path d="M838.223 187.775H81.8712C82.6881 176.038 87.9262 165.047 96.5287 157.02C105.131 148.993 116.458 144.527 128.224 144.524H791.87C803.636 144.527 814.963 148.993 823.565 157.02C832.168 165.047 837.406 176.038 838.223 187.775Z" fill="#92E3A9" stroke="#263238" stroke-width="1.10311" stroke-miterlimit="10"/>
<path d="M174.807 166.066C174.807 167.694 174.324 169.287 173.419 170.641C172.514 171.995 171.228 173.051 169.723 173.674C168.218 174.297 166.562 174.46 164.965 174.143C163.367 173.825 161.9 173.041 160.748 171.889C159.597 170.737 158.812 169.27 158.494 167.672C158.177 166.075 158.34 164.419 158.963 162.914C159.586 161.409 160.642 160.123 161.996 159.218C163.351 158.313 164.943 157.83 166.572 157.83C168.756 157.83 170.85 158.698 172.395 160.242C173.939 161.787 174.807 163.881 174.807 166.066Z" fill="#263238"/>
<path d="M209.634 166.066C209.634 167.694 209.151 169.287 208.246 170.641C207.341 171.995 206.055 173.051 204.55 173.674C203.045 174.297 201.39 174.46 199.792 174.143C198.195 173.825 196.727 173.041 195.576 171.889C194.424 170.737 193.639 169.27 193.322 167.672C193.004 166.075 193.167 164.419 193.79 162.914C194.414 161.409 195.469 160.123 196.823 159.218C198.178 158.313 199.77 157.83 201.399 157.83C203.583 157.83 205.678 158.698 207.222 160.242C208.766 161.787 209.634 163.881 209.634 166.066Z" fill="#263238"/>
<path d="M236.226 174.301C240.774 174.301 244.461 170.614 244.461 166.066C244.461 161.517 240.774 157.83 236.226 157.83C231.678 157.83 227.991 161.517 227.991 166.066C227.991 170.614 231.678 174.301 236.226 174.301Z" fill="#263238"/>
<path d="M818.106 205.126V553.671C818.106 565.231 813.514 576.317 805.34 584.491C797.166 592.665 786.079 597.258 774.519 597.258H147.963C137.874 597.256 128.098 593.754 120.303 587.349C112.507 580.945 107.175 572.034 105.215 562.137V562.011C104.682 559.249 104.416 556.442 104.419 553.629V205.126H818.106Z" stroke="#263238" stroke-width="1.10311" stroke-miterlimit="10"/>
<path d="M817.435 259.022C814.38 257.306 811.129 255.962 807.754 255.02L803.836 237.522H787.197L783.321 255.02C779.926 255.946 776.66 257.29 773.597 259.022L758.573 249.404L746.817 261.118L756.268 276.142C754.537 279.206 753.193 282.472 752.265 285.866L734.768 289.742V306.381L752.265 310.299C753.183 313.71 754.527 316.991 756.268 320.064L746.649 335.194L758.426 346.95L773.535 337.331C776.591 339.066 779.85 340.418 783.237 341.355L787.134 358.831H803.71L807.607 341.355C810.985 340.408 814.235 339.057 817.289 337.331L818.064 337.834V258.603L817.435 259.022ZM795.558 319.792C791.305 319.792 787.148 318.53 783.611 316.167C780.075 313.804 777.32 310.445 775.693 306.515C774.066 302.585 773.642 298.261 774.473 294.09C775.304 289.919 777.354 286.088 780.363 283.082C783.372 280.076 787.205 278.03 791.377 277.203C795.549 276.375 799.872 276.804 803.8 278.435C807.729 280.065 811.085 282.824 813.445 286.362C815.805 289.901 817.062 294.06 817.058 298.313C817.058 301.135 816.502 303.93 815.421 306.537C814.34 309.145 812.756 311.513 810.76 313.508C808.763 315.503 806.393 317.085 803.784 318.163C801.176 319.241 798.381 319.795 795.558 319.792Z" fill="#263238"/>
<path d="M517.569 275.891V240.812L480.688 232.619C478.697 225.492 475.885 218.622 472.306 212.146L476.769 205.126H302.633L306.928 211.957C303.306 218.405 300.491 225.274 298.546 232.409L261.645 240.624V275.786L298.546 284.021C300.491 291.21 303.305 298.135 306.928 304.641L286.665 336.514L311.497 361.325L343.348 341.04C349.81 344.675 356.683 347.524 363.821 349.527L372.036 386.303H407.031L415.287 349.443C422.402 347.431 429.253 344.582 435.697 340.956L467.57 361.241L492.381 336.43L472.243 304.557C475.813 298.092 478.625 291.236 480.625 284.126L517.569 275.891ZM389.743 303.677C380.778 303.677 372.015 301.019 364.561 296.039C357.107 291.058 351.298 283.979 347.867 275.697C344.437 267.415 343.539 258.301 345.288 249.509C347.037 240.717 351.354 232.64 357.693 226.301C364.032 219.962 372.108 215.646 380.9 213.897C389.693 212.148 398.806 213.045 407.088 216.476C415.37 219.907 422.449 225.716 427.43 233.17C432.41 240.624 435.069 249.387 435.069 258.352C435.071 264.305 433.901 270.2 431.624 275.7C429.347 281.201 426.009 286.198 421.799 290.408C417.59 294.617 412.592 297.956 407.092 300.233C401.591 302.51 395.696 303.68 389.743 303.677Z" fill="#263238"/>
<path d="M284.821 516.769L286.309 488.92L257.454 480.789C256.114 475.066 254.132 469.513 251.544 464.235L268.979 439.759L250.287 419.035L224.177 433.703C219.186 430.563 213.849 428.011 208.272 426.097L203.285 396.508L175.457 395.23L167.41 424.169C161.676 425.455 156.118 427.424 150.855 430.036L126.401 412.623L105.634 431.294L120.429 457.425C117.257 462.393 114.696 467.727 112.801 473.309L104.419 474.692V512.411L110.538 514.129C111.807 519.871 113.77 525.437 116.384 530.704L104.356 547.573L105.152 562.011V562.137L117.579 575.904L143.731 561.131C148.713 564.335 154.068 566.918 159.677 568.822L164.581 597.237L164.811 598.431L192.64 599.898L193.373 597.237L200.686 570.98C206.445 569.69 212.031 567.721 217.325 565.113L241.737 582.505L262.483 563.855L247.814 537.703C250.956 532.741 253.483 527.414 255.337 521.84L284.821 516.769ZM210.912 473.288C206.146 467.985 199.913 464.216 193.004 462.457C186.094 460.697 178.818 461.026 172.096 463.403C165.374 465.779 159.508 470.096 155.239 475.807C150.971 481.518 148.492 488.367 148.117 495.487C147.741 502.607 149.486 509.679 153.13 515.807C156.775 521.935 162.155 526.845 168.59 529.915C175.025 532.985 182.226 534.077 189.282 533.054C196.338 532.031 202.932 528.938 208.23 524.166C215.304 517.776 219.558 508.843 220.06 499.323C220.563 489.803 217.274 480.472 210.912 473.371V473.288Z" fill="#263238"/>
<path d="M507.405 475.257C508.482 470.945 509.052 466.521 509.103 462.077L529.115 451.599L523.583 431.294L500.993 432.341C498.705 428.546 495.984 425.03 492.884 421.864L499.568 400.259L481.337 389.782L466.082 406.42C461.777 405.381 457.371 404.819 452.943 404.743L442.466 384.731L422.181 390.243L423.25 412.853C419.454 415.14 415.938 417.862 412.772 420.963L391.147 414.278L380.669 432.488L397.433 447.722C396.349 452.018 395.793 456.431 395.778 460.861L375.724 471.339L381.256 491.623L403.887 490.554C406.131 494.369 408.841 497.889 411.955 501.032L405.229 522.532L423.48 533.009L438.652 516.497C442.962 517.582 447.388 518.138 451.833 518.152L462.31 538.185L482.595 532.674L481.694 513.354L481.547 510.043C485.396 507.777 488.956 505.054 492.15 501.933L513.755 508.639L522.682 493.048L524.19 490.408L507.405 475.257ZM459.481 487.579C454.279 489.013 448.769 488.871 443.648 487.169C438.527 485.467 434.027 482.283 430.719 478.021C427.41 473.758 425.442 468.609 425.064 463.226C424.686 457.843 425.915 452.469 428.596 447.786C431.276 443.103 435.287 439.321 440.119 436.92C444.952 434.52 450.389 433.608 455.74 434.302C461.091 434.996 466.116 437.263 470.177 440.816C474.238 444.369 477.152 449.048 478.55 454.26C480.413 461.206 479.454 468.608 475.882 474.849C472.31 481.091 466.414 485.667 459.481 487.579Z" fill="#263238"/>
<path d="M739.42 510.965L744.03 483.094L715.824 471.758C715.184 465.818 713.826 459.978 711.78 454.365L732.085 431.755L715.657 408.704L687.661 420.586C683.013 416.86 677.933 413.708 672.531 411.198L670.897 380.834L643.027 376.224L631.606 404.304C625.692 404.998 619.878 406.369 614.276 408.39L591.603 388.084L568.657 404.513L580.56 432.488C577.283 436.577 574.439 440.994 572.073 445.669C571.758 446.318 571.423 446.968 571.13 447.618L540.787 449.294L536.156 477.122L540.724 478.966L564.361 488.501C565.006 494.413 566.364 500.224 568.406 505.81L548.058 528.567L564.508 551.618L592.483 539.673C597.116 543.432 602.189 546.613 607.592 549.145L609.163 579.362L637.012 583.972L648.412 556.102C654.339 555.454 660.165 554.089 665.763 552.037L688.394 572.342L711.445 555.892L699.542 527.896C703.334 523.244 706.536 518.141 709.077 512.704L739.42 510.965ZM661.257 509.707C655.394 513.914 648.415 516.288 641.203 516.528C633.991 516.768 626.87 514.863 620.74 511.056C614.61 507.248 609.747 501.708 606.766 495.137C603.785 488.565 602.819 481.257 603.992 474.137C605.164 467.017 608.422 460.404 613.353 455.136C618.284 449.867 624.667 446.179 631.694 444.538C638.721 442.897 646.077 443.377 652.831 445.917C659.585 448.457 665.435 452.943 669.639 458.808C675.272 466.675 677.548 476.457 675.968 486.002C674.389 495.547 669.082 504.075 661.215 509.707H661.257Z" fill="#263238"/>
<path d="M361.726 304.641H142.578C127.406 304.641 115.106 316.941 115.106 332.113V635.521C115.106 650.694 127.406 662.993 142.578 662.993H361.726C376.898 662.993 389.198 650.694 389.198 635.521V332.113C389.198 316.941 376.898 304.641 361.726 304.641Z" fill="#92E3A9" stroke="#263238" stroke-width="1.10311" stroke-miterlimit="10"/>
<path opacity="0.2" d="M361.726 304.641H142.578C127.406 304.641 115.106 316.941 115.106 332.113V635.521C115.106 650.694 127.406 662.993 142.578 662.993H361.726C376.898 662.993 389.198 650.694 389.198 635.521V332.113C389.198 316.941 376.898 304.641 361.726 304.641Z" fill="black"/>
<path d="M414.7 359.187V662.595C414.703 666.205 413.995 669.779 412.615 673.115C411.236 676.45 409.213 679.481 406.661 682.035C404.11 684.588 401.081 686.613 397.746 687.995C394.412 689.377 390.838 690.088 387.228 690.088H168.08C164.473 690.086 160.901 689.372 157.569 687.989C154.237 686.606 151.21 684.58 148.661 682.027C146.112 679.474 144.09 676.444 142.712 673.11C141.334 669.776 140.626 666.203 140.629 662.595V359.187C140.629 351.905 143.521 344.92 148.668 339.769C153.816 334.618 160.798 331.721 168.08 331.715H387.228C394.514 331.715 401.502 334.61 406.654 339.762C411.806 344.914 414.7 351.901 414.7 359.187Z" fill="white" stroke="#263238" stroke-width="1.10311" stroke-linecap="round" stroke-linejoin="round"/>
<path d="M414.7 359.187V375.427H140.629V359.187C140.629 351.905 143.521 344.92 148.668 339.769C153.816 334.618 160.798 331.721 168.08 331.715H387.228C394.514 331.715 401.502 334.61 406.654 339.762C411.806 344.914 414.7 351.901 414.7 359.187Z" fill="#92E3A9" stroke="#263238" stroke-width="1.10311" stroke-miterlimit="10"/>
<path d="M233.837 394.245H166.404V405.561H233.837V394.245Z" fill="#92E3A9"/>
<path d="M233.837 495.646H166.404V506.962H233.837V495.646Z" fill="#92E3A9"/>
<path d="M233.837 587.597H166.404V598.913H233.837V587.597Z" fill="#92E3A9"/>
<path d="M357.912 422.262H166.404V430.56H357.912V422.262Z" fill="#263238"/>
<path d="M323.378 438.125H166.404V446.214H323.378V438.125Z" fill="#263238"/>
<path d="M343.935 453.736H166.404V461.825H343.935V453.736Z" fill="#263238"/>
<path d="M343.935 469.327H166.404V477.416H343.935V469.327Z" fill="#263238"/>
<path d="M357.912 514.213H166.404V522.511H357.912V514.213Z" fill="#263238"/>
<path d="M323.378 530.076H166.404V538.164H323.378V530.076Z" fill="#263238"/>
<path d="M343.935 545.687H166.404V553.776H343.935V545.687Z" fill="#263238"/>
<path d="M357.912 615.174H166.404V623.472H357.912V615.174Z" fill="#263238"/>
<path d="M323.378 631.058H166.404V639.147H323.378V631.058Z" fill="#263238"/>
<path d="M343.935 646.67H166.404V654.758H343.935V646.67Z" fill="#263238"/>
<path d="M723.599 121.326V243.955C723.599 248.258 722.751 252.519 721.104 256.494C719.456 260.469 717.042 264.081 713.998 267.123C710.955 270.164 707.342 272.576 703.365 274.221C699.389 275.866 695.128 276.711 690.825 276.708H408.393C404.09 276.711 399.829 275.866 395.852 274.221C391.876 272.576 388.263 270.164 385.22 267.123C382.176 264.081 379.762 260.469 378.114 256.494C376.467 252.519 375.619 248.258 375.619 243.955V121.326C375.625 112.636 379.079 104.303 385.224 98.1581C391.37 92.0131 399.702 88.5583 408.393 88.5528H690.825C699.517 88.5528 707.853 92.0057 713.999 98.152C720.146 104.298 723.599 112.634 723.599 121.326Z" fill="white" stroke="#222221" stroke-width="1.10311" stroke-miterlimit="10"/>
<path d="M723.599 121.326V124.134H375.619V121.326C375.625 112.636 379.079 104.303 385.224 98.1581C391.37 92.0131 399.702 88.5583 408.393 88.5528H690.825C699.517 88.5528 707.853 92.0057 713.999 98.152C720.146 104.298 723.599 112.634 723.599 121.326Z" fill="#92E3A9" stroke="#263238" stroke-width="1.10311" stroke-miterlimit="10"/>
<path d="M426.749 112.211C426.047 112.916 425.151 113.396 424.175 113.591C423.199 113.786 422.187 113.687 421.267 113.307C420.348 112.926 419.561 112.282 419.008 111.455C418.455 110.627 418.16 109.654 418.16 108.659C418.16 107.664 418.455 106.691 419.008 105.864C419.561 105.036 420.348 104.392 421.267 104.012C422.187 103.631 423.199 103.532 424.175 103.727C425.151 103.923 426.047 104.403 426.749 105.107C427.685 106.053 428.21 107.329 428.21 108.659C428.21 109.989 427.685 111.266 426.749 112.211Z" fill="#263238"/>
<path d="M450.051 112.211C449.349 112.916 448.453 113.396 447.477 113.591C446.501 113.786 445.489 113.687 444.569 113.307C443.65 112.926 442.863 112.282 442.31 111.455C441.757 110.627 441.462 109.654 441.462 108.659C441.462 107.664 441.757 106.691 442.31 105.864C442.863 105.036 443.65 104.392 444.569 104.012C445.489 103.631 446.501 103.532 447.477 103.727C448.453 103.923 449.349 104.403 450.051 105.107C450.987 106.053 451.512 107.329 451.512 108.659C451.512 109.989 450.987 111.266 450.051 112.211Z" fill="#263238"/>
<path d="M473.354 112.211C472.651 112.916 471.755 113.396 470.779 113.591C469.803 113.786 468.791 113.687 467.871 113.307C466.952 112.926 466.165 112.282 465.612 111.455C465.059 110.627 464.764 109.654 464.764 108.659C464.764 107.664 465.059 106.691 465.612 105.864C466.165 105.036 466.952 104.392 467.871 104.012C468.791 103.631 469.803 103.532 470.779 103.727C471.755 103.923 472.651 104.403 473.354 105.107C474.289 106.053 474.814 107.329 474.814 108.659C474.814 109.989 474.289 111.266 473.354 112.211Z" fill="#263238"/>
<path d="M511.555 146.682H397.811V245.003H511.555V146.682Z" stroke="#263238" stroke-width="1.10311" stroke-linecap="round" stroke-linejoin="round" stroke-dasharray="4.41 4.41"/>
<path d="M660.021 146.682H529.115V153.597H660.021V146.682Z" fill="#263238"/>
<path d="M629.531 160.994H529.115V167.889H629.531V160.994Z" fill="#263238"/>
<path d="M678.629 175.244H529.115V182.222H678.629V175.244Z" fill="#263238"/>
<path d="M656.438 189.137H529.115V196.115H656.438V189.137Z" fill="#263238"/>
<path d="M733.112 425.678H669.095C661.537 425.678 655.411 431.804 655.411 439.361V476.934C655.411 484.491 661.537 490.617 669.095 490.617H733.112C740.67 490.617 746.796 484.491 746.796 476.934V439.361C746.796 431.804 740.67 425.678 733.112 425.678Z" fill="white" stroke="#263238" stroke-width="1.10311" stroke-linecap="round" stroke-linejoin="round"/>
<path d="M684.895 445.208L667.313 456.23L683.637 470.689" stroke="#263238" stroke-width="1.10311" stroke-linecap="round" stroke-linejoin="round"/>
<path d="M716.914 471.737L732.714 458.284L714.483 446.339" stroke="#263238" stroke-width="1.10311" stroke-linecap="round" stroke-linejoin="round"/>
<path d="M693.444 480.035L706.416 439.34" stroke="#263238" stroke-width="1.10311" stroke-linecap="round" stroke-linejoin="round"/>
<path d="M667.313 529.887L603.841 505.747L603.044 505.433C603.044 505.433 603.275 503.756 603.463 501.242C603.862 496.17 604.071 487.914 601.682 485.127C598.141 480.936 588.124 484.457 578.338 479.972C568.552 475.488 550.468 483.514 550.468 483.514C550.468 483.514 537.392 481.104 531.609 490.534C528.675 498.14 529.681 509.393 529.681 509.393L528.486 509.812C520.921 512.641 479.766 528.127 471.069 534.351C461.451 541.161 450.806 611.088 447.39 631.624C443.975 652.16 437.898 670.663 440.978 677.725C444.058 684.787 488.273 718.839 513.713 727.619C539.152 736.399 629.364 733.905 629.364 733.905C629.364 733.905 630.831 733.507 633.45 732.669C648.705 727.766 702.832 707.523 731.562 659.997C731.604 660.081 703.775 568.864 667.313 529.887ZM495.817 647.508C491.144 650.819 493.722 663.643 493.722 663.643L485.78 656.644L505.729 607.588L514.237 645.308C514.237 645.308 500.49 644.218 495.817 647.508ZM655.411 678.668C653.211 679.8 661.697 656.225 657.674 650.882C653.651 645.538 641.518 646.041 641.518 646.041L642.545 639.608L649.732 602.727L652.121 599.898C652.121 599.898 676.806 642.206 681.228 657.126C681.228 657.168 654.321 678.668 655.411 678.668Z" fill="#92E3A9"/>
<path d="M547.472 376.894L514.698 411.68C514.698 411.68 510.193 415.682 511.974 425.761C513.755 435.841 517.946 444.621 521.11 445.208C523.615 445.646 526.153 445.871 528.696 445.878C528.696 445.878 535.716 461.092 540.703 467.064C540.703 467.064 542.421 490.554 541.499 497.071C541.499 497.071 553.276 507.36 564.361 508.66C575.447 509.959 592.567 492.985 592.567 492.985L596.758 472.198C596.758 472.198 606.816 456.943 607.487 452.877C608.157 448.812 612.767 449.86 615.031 447.848C617.294 445.836 622.512 436.889 623.413 428.423C624.314 419.957 624.335 410.234 614.507 413.084C605.978 410.8 611.322 392.778 611.322 392.778L596.339 379.577L547.472 376.894Z" fill="white"/>
<path opacity="0.5" d="M603.841 505.747C603.346 507.042 602.78 508.308 602.143 509.54C596.737 519.724 573.183 539.149 573.183 539.149L566.059 517.251L562.161 539.149C554.303 535.712 530.33 514.946 530.33 514.946C530.33 514.946 529.513 512.997 528.528 509.959L529.723 509.54C529.723 509.54 528.717 498.203 531.651 490.68C537.392 481.25 550.51 483.66 550.51 483.66C550.51 483.66 568.594 475.634 578.38 480.119C588.166 484.603 598.183 481.125 601.724 485.274C605.266 489.423 603.086 505.516 603.086 505.516L603.841 505.747Z" fill="white"/>
<path opacity="0.2" d="M667.313 529.887L603.841 505.747L603.044 505.432C603.044 505.432 603.275 503.756 603.463 501.241L602.143 509.477L592.755 522.217C602.791 525.912 612.588 530.223 622.092 535.126C626.642 537.563 630.354 541.312 632.746 545.886C635.138 550.46 636.099 555.648 635.504 560.775L623.811 660.835L619.012 717.644L633.492 732.669C648.747 727.766 702.874 707.523 731.604 659.997C731.604 660.081 703.775 568.863 667.313 529.887ZM655.411 678.668C653.211 679.799 661.698 656.225 657.674 650.881C653.651 645.538 641.518 646.041 641.518 646.041L642.545 639.608L649.732 602.727L652.121 599.898C652.121 599.898 676.806 642.206 681.228 657.126C681.228 657.168 654.321 678.668 655.411 678.668Z" fill="black"/>
<path opacity="0.2" d="M518.449 650.881L508.579 617.898C508.579 617.898 490.872 557.527 478.739 542.649L481.924 585.104C481.924 585.104 471.447 635.815 461.87 650.881C452.294 665.948 450.156 669.741 461.87 669.741C473.584 669.741 502.104 692.456 502.104 692.456L499.904 673.597L518.449 650.881ZM493.575 663.643L485.633 656.644L505.582 607.588L514.09 645.307C514.09 645.307 500.427 644.281 495.754 647.571C491.081 650.861 493.575 663.643 493.575 663.643Z" fill="black"/>
<path d="M540.703 467.064C540.703 467.064 542.505 484.855 540.703 492.985" stroke="#263238" stroke-width="1.10311" stroke-linecap="round" stroke-linejoin="round"/>
<path d="M594.39 490.596C594.409 484.876 595.07 479.175 596.36 473.602" stroke="#263238" stroke-width="1.10311" stroke-linecap="round" stroke-linejoin="round"/>
<path d="M599.147 390.159C599.147 390.159 609.918 403.675 609.352 413.901C608.786 424.127 607.99 436.239 608.262 448.1C608.535 459.96 589.214 484.813 579.281 487.013C569.349 489.213 560.799 489.779 554.45 483.43C548.1 477.08 541.751 468.258 533.494 456.943C525.238 445.627 527.208 420.795 527.208 420.795" stroke="#263238" stroke-width="1.10311" stroke-linecap="round" stroke-linejoin="round"/>
<path d="M573.204 430.246C572.548 433.959 572.267 437.729 572.366 441.499C572.15 444.676 573.138 447.818 575.132 450.3C576.327 451.515 578.045 452.5 578.275 454.177C578.27 454.931 578.06 455.67 577.669 456.316C577.278 456.961 576.72 457.489 576.054 457.844C574.71 458.522 573.415 459.292 572.177 460.149" stroke="#263238" stroke-width="1.10311" stroke-linecap="round" stroke-linejoin="round"/>
<path d="M556.168 461.448C556.168 461.448 557.404 469.474 568.154 471.15" stroke="#263238" stroke-width="1.10311" stroke-linecap="round" stroke-linejoin="round"/>
<path d="M557.279 436.365C557.279 438.691 556.273 440.556 555.036 440.556C553.8 440.556 552.794 438.691 552.794 436.365C552.794 434.039 553.8 432.174 555.036 432.174C556.273 432.174 557.279 434.06 557.279 436.365Z" fill="#263238"/>
<path d="M589.361 437.371C589.361 439.697 588.355 441.562 587.119 441.562C585.882 441.562 584.876 439.676 584.876 437.371C584.876 435.066 585.882 433.18 587.119 433.18C588.355 433.18 589.361 435.045 589.361 437.371Z" fill="#263238"/>
<path d="M582.885 427.207C582.885 427.207 593.363 416.73 602.143 428.423" stroke="#263238" stroke-width="2.20621" stroke-linecap="round" stroke-linejoin="round"/>
<path d="M560.82 427.417C560.82 427.417 554.198 419.999 543.762 427.417" stroke="#263238" stroke-width="2.20621" stroke-linecap="round" stroke-linejoin="round"/>
<path d="M541.499 476.955C541.499 476.955 547.891 494.557 562.161 499.565C576.431 504.573 595.375 478.61 595.375 478.61L594.39 475.236C594.39 475.236 581.964 491.372 568.154 488.627C554.345 485.882 540.703 467.148 540.703 467.148L541.499 476.955Z" fill="#263238"/>
<path d="M528.696 445.208C528.696 445.208 520.188 448.204 517.925 441.582C515.662 434.961 507.908 417.505 514.698 411.68C521.487 405.854 526.936 419.37 526.936 419.37" stroke="#263238" stroke-width="1.10311" stroke-linecap="round" stroke-linejoin="round"/>
<path d="M608.241 448.812C608.241 448.812 616.141 450.405 618.404 443.783C620.668 437.161 628.421 419.705 621.631 413.88C614.842 408.054 609.394 421.57 609.394 421.57" stroke="#263238" stroke-width="1.10311" stroke-linecap="round" stroke-linejoin="round"/>
<path d="M526.936 436.365C529.891 435.899 532.558 434.325 534.396 431.964C535.518 429.892 536.229 427.622 536.491 425.279C537.269 420.823 537.662 416.308 537.665 411.784C537.572 410.017 537.735 408.246 538.147 406.525C538.776 404.793 539.745 403.204 540.996 401.852C543.951 398.373 547.534 395.439 550.363 391.835C551.88 390.134 553.034 388.142 553.754 385.98C554.475 383.819 554.747 381.533 554.554 379.262C561.037 384.607 568.613 388.467 576.747 390.571C584.882 392.674 593.379 392.97 601.64 391.437C616.623 388.503 630.977 375.365 629.238 358.852C628.91 356.083 627.723 353.487 625.843 351.428C623.964 349.368 621.488 347.949 618.761 347.369C611.363 345.525 604.721 349.464 598.015 352C585.798 356.61 573.833 348.689 561.49 347.369C551.013 346.216 537.958 347.536 532.468 358.035C532.468 358.035 513.608 360.256 505.226 375.847C496.844 391.437 512.707 413 512.707 413C512.707 413 518.994 405.288 527.229 420.879L526.936 436.365Z" fill="#263238"/>
<path d="M600.446 386.177C600.446 386.177 595.542 411.742 608.346 424.127C608.346 424.127 611.154 416.436 613.983 414.55C616.023 410.013 616.886 405.036 616.494 400.077C616.103 395.118 614.468 390.338 611.741 386.177C602.269 371.299 600.446 386.177 600.446 386.177Z" fill="#263238"/>
<path opacity="0.2" d="M623.79 357.092C622.666 360.58 620.76 363.765 618.218 366.406C615.676 369.046 612.565 371.071 609.121 372.326C591.351 379.576 574.105 371.551 556.294 369.979C541.772 368.68 525.741 381.798 524.714 396.718" stroke="white" stroke-width="1.10311" stroke-linecap="round" stroke-linejoin="round"/>
<path opacity="0.2" d="M513.755 392.778C513.973 386.891 515.862 381.186 519.201 376.333C522.541 371.479 527.193 367.676 532.614 365.369" stroke="white" stroke-width="1.10311" stroke-linecap="round" stroke-linejoin="round"/>
<path d="M536.596 490.596C544.41 498.74 553.839 505.164 564.277 509.456C564.277 509.456 585.547 503.274 596.36 488.501" stroke="#263238" stroke-width="1.10311" stroke-linecap="round" stroke-linejoin="round"/>
<path d="M558.332 453.427C567.778 449.094 571.924 437.924 567.591 428.478C563.258 419.031 552.088 414.886 542.641 419.219C533.195 423.552 529.049 434.722 533.382 444.169C537.715 453.615 548.885 457.76 558.332 453.427Z" stroke="#263238" stroke-width="1.10311" stroke-linecap="round" stroke-linejoin="round"/>
<path d="M594.796 455.084C605.111 453.817 612.447 444.428 611.18 434.113C609.914 423.798 600.525 416.462 590.209 417.729C579.894 418.996 572.559 428.385 573.825 438.7C575.092 449.015 584.481 456.35 594.796 455.084Z" stroke="#263238" stroke-width="1.10311" stroke-linecap="round" stroke-linejoin="round"/>
<path d="M540.703 483.576C538.797 484.077 537.01 484.956 535.452 486.163C533.893 487.369 532.593 488.877 531.63 490.596C528.298 496.464 530.309 514.925 530.309 514.925C530.309 514.925 547.513 531.941 562.161 539.128L566.478 514.841L573.183 539.128C573.183 539.128 595.857 523.098 602.143 509.54C602.143 509.54 604.239 493.719 602.143 488.585C601.667 487.159 600.76 485.915 599.548 485.026C598.336 484.137 596.878 483.645 595.375 483.618" stroke="#263238" stroke-width="1.10311" stroke-linecap="round" stroke-linejoin="round"/>
<path d="M513.755 646.062C513.755 646.062 507.028 601.008 498.08 582.631" stroke="#263238" stroke-width="1.10311" stroke-linecap="round" stroke-linejoin="round"/>
<path d="M478.739 542.649C483.949 550.053 488.6 557.835 492.653 565.93" stroke="#263238" stroke-width="1.10311" stroke-linecap="round" stroke-linejoin="round"/>
<path d="M655.411 576.282C657.218 568.749 659.693 561.392 662.808 554.3" stroke="#263238" stroke-width="1.10311" stroke-linecap="round" stroke-linejoin="round"/>
<path d="M641.518 646.062C641.518 646.062 646.358 615.174 652.142 589.735" stroke="#263238" stroke-width="1.10311" stroke-linecap="round" stroke-linejoin="round"/>
<path d="M649.732 602.685C654.411 596.481 660.99 591.978 668.466 589.86" stroke="#263238" stroke-width="1.10311" stroke-linecap="round" stroke-linejoin="round"/>
<path d="M603.065 505.432C603.065 505.432 642.105 521.044 667.313 529.908C667.313 529.908 698.327 559.057 731.583 660.081C731.583 660.081 701.114 711.337 643.152 727.766" stroke="#263238" stroke-width="1.10311" stroke-linecap="round" stroke-linejoin="round"/>
<path d="M653.211 680.491L681.228 657.168C681.228 657.168 696.043 645.915 711.445 653.606" stroke="#263238" stroke-width="1.10311" stroke-linecap="round" stroke-linejoin="round"/>
<path d="M652.142 599.898C652.142 599.898 675.297 634.118 681.228 657.168" stroke="#263238" stroke-width="1.10311" stroke-linecap="round" stroke-linejoin="round"/>
<path d="M493.889 664.942L485.696 657.168C485.696 657.168 473.542 655.073 459.754 664.272" stroke="#263238" stroke-width="1.10311" stroke-linecap="round" stroke-linejoin="round"/>
<path d="M485.696 657.168C485.696 657.168 495.88 623.64 505.918 606.478" stroke="#263238" stroke-width="1.10311" stroke-linecap="round" stroke-linejoin="round"/>
<path d="M529.723 509.54C529.723 509.54 473.542 530.62 468.031 536.781C462.52 542.942 441.586 660.814 441.02 674.309C440.538 686.379 484.292 713.474 505.98 724.895" stroke="#263238" stroke-width="1.10311" stroke-linecap="round" stroke-linejoin="round"/>
<path d="M571.738 549.375C571.738 550.109 571.52 550.826 571.112 551.436C570.705 552.046 570.126 552.521 569.448 552.802C568.77 553.083 568.024 553.156 567.305 553.013C566.585 552.87 565.925 552.517 565.406 551.998C564.887 551.479 564.534 550.818 564.391 550.099C564.248 549.379 564.321 548.634 564.602 547.956C564.883 547.278 565.358 546.699 565.968 546.291C566.578 545.884 567.295 545.666 568.029 545.666C568.516 545.663 569 545.757 569.451 545.943C569.902 546.128 570.312 546.401 570.657 546.746C571.002 547.091 571.275 547.501 571.461 547.953C571.646 548.404 571.74 548.887 571.738 549.375Z" fill="#263238"/>
<path d="M641.224 736.797L658.345 656.33C658.61 655.082 658.594 653.791 658.295 652.551C657.997 651.31 657.426 650.152 656.622 649.162C655.818 648.171 654.803 647.373 653.651 646.826C652.498 646.279 651.238 645.996 649.963 645.999H500.553C499.288 645.999 498.039 646.28 496.896 646.821C495.753 647.363 494.744 648.151 493.943 649.129C493.141 650.107 492.566 651.251 492.26 652.478C491.953 653.705 491.923 654.985 492.171 656.225L507.531 734.01C507.908 735.921 508.925 737.645 510.415 738.899C511.905 740.153 513.778 740.86 515.725 740.904L632.633 743.587C634.631 743.631 636.582 742.977 638.15 741.738C639.719 740.499 640.806 738.752 641.224 736.797Z" fill="white" stroke="#263238" stroke-width="1.10311" stroke-linecap="round" stroke-linejoin="round"/>
<path d="M586.699 692.435C586.695 694.793 585.992 697.096 584.68 699.054C583.367 701.012 581.503 702.537 579.324 703.436C577.145 704.335 574.749 704.569 572.437 704.106C570.125 703.644 568.003 702.506 566.337 700.838C564.672 699.17 563.538 697.045 563.08 694.733C562.622 692.42 562.859 690.024 563.762 687.847C564.665 685.669 566.193 683.808 568.154 682.499C570.114 681.19 572.419 680.491 574.776 680.491C576.344 680.491 577.896 680.8 579.344 681.401C580.792 682.001 582.107 682.881 583.215 683.991C584.322 685.1 585.2 686.417 585.798 687.866C586.396 689.315 586.702 690.868 586.699 692.435Z" fill="#263238"/>
<path d="M610.148 653.689H627.897" stroke="#263238" stroke-width="1.10311" stroke-linecap="round" stroke-linejoin="round"/>
<path d="M525.385 653.689H592.755" stroke="#263238" stroke-width="1.10311" stroke-linecap="round" stroke-linejoin="round"/>
<path d="M641.518 822.231L627.897 857.98C627.897 857.98 593.154 849.221 548.666 840.106C502.125 830.571 453.53 818.229 428.321 773.992C425.262 768.607 423.208 762.237 424.654 756.202C428.279 740.925 448.165 736.776 461.262 735.247C469.496 734.356 477.771 733.894 486.052 733.864C490.243 733.864 504.178 731.579 507.552 734.073C512.621 737.771 518.031 740.978 523.708 743.649C531.148 746.814 639.737 740.821 639.737 740.821C641.626 736.701 642.782 732.283 643.152 727.766C660.231 719.09 699.731 711.756 716.495 715.004C742.752 720.096 758.07 735.414 755.157 751.466C752.244 767.517 694.241 810.559 641.518 822.231Z" fill="#263238"/>
<path d="M575.3 790.945C592.357 786.042 604.867 774.998 618.551 764.416C632.984 752.833 648.483 742.645 664.841 733.989" stroke="white" stroke-width="1.10311" stroke-linecap="round" stroke-linejoin="round"/>
<path d="M569.286 439.34H574.294" stroke="#263238" stroke-width="1.10311" stroke-linecap="round" stroke-linejoin="round"/>
</svg>
